<svg width="640" height="120" viewBox="0 0 640 120" fill="none" xmlns="http://www.w3.org/2000/svg">
<g clip-path="url(#clip0_155_152)">
<g filter="url(#filter0_d_155_152)">
<path fill-rule="evenodd" clip-rule="evenodd" d="M121.456 13.7559C120.158 14.0608 113.628 15.8443 106.944 17.7179C81.9773 24.7188 69.0914 27.1632 54.8604 27.5995C43.0022 27.9628 37.9494 27.1085 28.5687 23.1532C22.0509 20.4045 21.1683 20.6972 22.4671 25.1783C23.8319 29.8851 28.1578 37.2152 34.5648 45.6778C37.8735 50.0475 41.1836 54.2432 41.921 55.0026L43.2621 56.3821L40.3326 59.1472C38.7212 60.6678 34.3042 64.1546 30.5166 66.8953C19.8741 74.5954 19.6623 74.792 20.134 76.5275C21.0337 79.8323 33.8827 86.7109 43.0615 88.8017C54.9204 91.5023 69.3631 92.4181 78.3005 91.035C80.4773 90.6978 87.2689 89.8757 93.3936 89.2076C99.5177 88.5395 106.437 87.5847 108.77 87.0857C114.276 85.9076 119.989 83.3945 120.967 81.7205C121.941 80.0513 128.094 78 132 70C135.906 62 136.469 55 137.906 43C139.344 31 140 23.9241 140 21C140 18.0759 138.637 15.9271 135.906 14.6243C133.474 13.4638 124.891 12.9478 121.456 13.7559ZM504.228 15.0618C501.784 15.7117 500 16 500 20C500 24 501.407 29.2425 503 35C506.681 48.3016 511 57 515 65C519 73 522 80 526.203 82.9174C530.407 85.8348 531.216 86.7772 541.448 88.5991C560.304 91.9562 579.053 92.6025 595.124 90.4502C612.099 88.1774 618.574 86.2149 619.812 82.9685C620.387 81.46 619.965 80.9008 613.862 75.0901C607.427 68.9624 599.429 60.4013 596.547 56.5531C595.749 55.4876 594.655 53.4619 594.115 52.0513C593.178 49.5996 593.206 49.3763 594.741 46.9909C595.624 45.6181 599.672 40.6612 603.737 35.9757C611.101 27.4864 614.913 22.5459 614.913 21.4901C614.913 20.7325 611.379 21.3154 606.993 22.7972C600.884 24.8612 589.295 26.186 577.644 26.1525C563.006 26.1111 554.261 24.6203 534.932 18.8717C520.832 14.6784 510.493 13.3957 504.228 15.0618Z" fill="#B71F01"/>
<path d="M500.577 17.822C499.153 16.6441 500.761 43 500.761 43V85.5532C501.525 88.5896 502.438 89.4635 503.946 88.6C504.572 88.241 508.349 87.0562 512.34 85.967C520.228 83.814 525 79.6996 525 78C525 78 524.4 29.178 523.4 24C522.4 18.822 514.838 19.7596 508 20C504.198 20.1336 502 19 500.577 17.822Z" fill="#A71C00"/>
<path d="M131.875 22.7096C124.632 23.6303 122.826 24.3142 122.826 26.1355V82.1355C122.826 84.2501 125.56 86.6306 130.248 88.5973C139.6 92.5216 140.783 91.7092 140.494 81.5605L140.494 25.5605C140.494 22.7096 140.694 19.747 139.2 18C138.2 20 133.716 22.4754 131.875 22.7096Z" fill="#A71C00"/>
<path fill-rule="evenodd" clip-rule="evenodd" d="M517.132 23.5495C515.414 24.1768 509.774 25.4358 504.598 26.3468C497.106 27.666 493.271 28.0044 485.769 28.0062C476.807 28.0086 476.334 28.0695 476.073 29.2536C475.921 29.9388 475.666 34.7436 475.507 39.9312C475.261 47.9373 474.914 50.4207 473.217 56.361C468.733 72.052 463.84 75.7616 461.406 76.6226C461.406 76.6226 452.833 77.4447 448.655 77.9504C438.887 79.1315 428 76 428.711 84.2532C429.422 92.5064 432.228 96.4016 436.602 97.6082C440.751 98.7528 450.423 99.5549 460.136 99.5603C473.662 99.5677 509.257 95.9732 517.015 93.816C527.631 90.8647 529.224 85.8737 526.539 63.9673C525.76 57.6084 524.88 46.1076 524.582 38.4099C524.285 30.7122 523.826 23.9346 523.562 23.3493C522.965 22.0239 521.155 22.0805 517.132 23.5495ZM167.318 26.48C166.299 27.3654 157.174 30.2023 152.312 31.1461C147.092 32.1593 136.131 32.2962 132.604 31.3926C131.27 31.0506 128.68 29.8202 126.848 28.6573C125.016 27.495 123.287 26.5439 123.005 26.5439C122.723 26.5439 122.413 29.0772 122.316 32.1727C122.219 35.2688 121.675 42.6214 121.108 48.5124C119.854 61.523 120.049 85.5403 121.428 88.0711C121.905 88.9449 123.298 90.1017 124.524 90.6408C129.48 92.8211 145.103 95.6744 168.671 98.7029C182.547 100.486 187.737 100.446 196.045 98.4869C204.26 96.5507 207.479 94.4227 207.479 90.9292C207.479 87.4583 208.987 77.1234 198.417 75.1007C192.481 73.9646 184.068 72.4799 180.87 67.9976C174.374 58.8894 171.752 56.6117 171.166 37.9535C170.795 26.16 170.762 25.9354 169.366 25.9354C168.585 25.9354 167.663 26.1807 167.318 26.48Z" fill="#C72100"/>
<path d="M426.494 75.5337C426.494 89.0675 430.154 93.4602 432 94C434 92 435.155 91.517 440.118 89.8958C444.428 88.4871 447.416 87.9644 452.981 87.6461C456.967 87.4179 460.6 86.961 461.053 86.6299C463.335 84.9665 465.863 24.9623 460.314 21.6097C457.561 19.9454 451.822 18.3822 442.382 16.7246C429.008 14.3764 427.037 14.2291 426.494 15.5337V75.5337Z" fill="#A71C00"/>
<path d="M183 83C183.814 84.1458 187.566 85.5571 190.586 85.8596C192.682 86.0695 196.615 86.6701 199.326 87.194C206.577 88.5955 207.4 91 207.4 91C208.4 88 209.753 83 209.753 75.3767C209.753 67.7535 209.4 36.9999 209.4 31C209.4 25 210.526 16.2469 209.753 15.3767C208.707 14.2005 202.952 14.5431 196.554 16.163C186.415 18.7296 183 20 183 23V83Z" fill="#A71C00"/>
<path fill-rule="evenodd" clip-rule="evenodd" d="M296.31 0.379183C274.656 1.48302 234.508 4.57973 220.782 6.20506C204.976 8.07624 172.047 14.835 170.417 16.5424C168.279 18.7805 167.666 38.1202 169.353 50.0927C171.339 64.1925 175.929 76.8276 180.86 81.7663C181.946 82.8537 183.069 83.7439 183.357 83.7439C183.644 83.7439 186.925 82.5074 190.648 80.9959C208.393 73.7917 214.673 73.1431 283.117 71.4405C331.126 70.246 364.058 70.4522 385.69 72.0824C408.021 73.765 422.969 75.4335 433.355 77.4026C442.382 79.1144 454.044 82.4983 458.564 84.7176C460.2 85.5208 461.848 86.178 462.228 86.178C463.373 86.178 466.985 80.1263 470.078 73.0262C475.749 60.0138 478.377 48.7162 478.346 37.4971C478.326 30.7098 476.385 18.5737 475.088 17.1321C472.833 14.625 441.967 8.02025 418.199 4.95823C391.951 1.57734 323.361 -0.999703 296.31 0.379183Z" fill="#D92400"/>
</g>
<path fill-rule="evenodd" clip-rule="evenodd" d="M289.067 12.6481C280.008 16.5488 282.886 28.0933 296.026 40.5537C299.301 43.6602 301.587 46.9351 301.587 48.5225C301.587 48.9601 301.2 49.7719 300.728 50.3259C299.979 51.2022 299.515 51.2525 297.167 50.7109C295.682 50.3678 294.289 49.6916 294.073 49.2077C293.544 48.0267 290.126 48.3637 289.848 49.6243C289.732 50.1467 290.853 51.5617 292.377 52.8162C295.32 55.2397 299.778 56.6881 302.495 56.1036C304.724 55.6242 306.631 52.6856 307.126 48.9691C307.472 46.3686 307.272 45.372 305.906 42.8794C304.222 39.8075 298.327 33.9716 296.37 33.4391C295.761 33.2734 294.163 31.526 292.818 29.5558C290.874 26.7077 290.373 25.3899 290.373 23.1241C290.373 20.5468 290.547 20.2138 292.187 19.6372C293.185 19.2867 295.189 19.0396 296.64 19.0877C299.58 19.1849 302.174 18.7298 303.074 17.9582C303.402 17.6778 303.572 16.7263 303.452 15.8433C302.956 12.1574 294.545 10.289 289.067 12.6481ZM337.87 14.4243C336.965 14.6397 336.127 15.2514 336.007 15.7828C335.67 17.286 339.402 20.1375 341.709 20.1375H343.673L343.903 37.1431C344.121 53.2164 344.204 54.1927 345.417 54.9531C346.286 55.4975 346.918 55.5716 347.371 55.1832C347.782 54.831 348.075 49.3208 348.129 40.9065C348.213 28.1007 348.713 23.612 350.381 20.7028C350.697 20.1516 352.277 19.7373 354.895 19.519C361.152 18.9972 362.709 17.2018 358.732 15.0959C356.765 14.0535 355.539 13.9251 348.013 13.9754C343.34 14.0065 338.775 14.2084 337.87 14.4243ZM370.156 15.7562C368.231 17.5008 365.845 21.6746 365.298 24.2536C363.541 32.5334 362.424 48.9064 363.345 52.8558C364.225 56.6231 367.054 53.5822 367.928 47.9306C368.507 44.1916 369.039 44.5392 372.974 51.235C375.384 55.3341 376.037 56.0357 377.445 56.0357C378.651 56.0357 379.151 55.6954 379.304 54.7694C379.565 53.1944 376.281 44.9536 375.052 44.1017C373.55 43.0603 373.996 42.1914 377.364 39.596C379.134 38.2325 381.031 36.2855 381.578 35.2696C382.718 33.157 384.297 23.0829 383.946 20.1612C383.4 15.6149 373.723 12.5237 370.156 15.7562ZM267.389 16.6042C262.469 27.2725 261.435 32.8681 262.409 43.5392C263.133 51.469 263.899 52.9988 265.977 50.6651C266.67 49.8878 267.405 48.6096 267.611 47.8249C267.943 46.5575 268.264 46.4212 270.486 46.6027C271.862 46.7152 274.066 46.4212 275.384 45.9492C277.619 45.1487 277.807 45.1605 278.163 46.1244C278.826 47.9131 282.473 51.854 283.14 51.5012C284.087 50.9998 283.899 47.3738 282.759 44.1639C282.207 42.6092 281.327 38.7305 280.804 35.5449C279.842 29.6904 276.985 22.6396 273.474 17.4522C272.165 15.5177 271.483 15.0496 269.977 15.0496C268.549 15.0496 267.936 15.4182 267.389 16.6042ZM397.564 17.2707C394.706 17.8615 392.749 18.8695 391.938 20.1675C391.301 21.1873 390.586 25.6296 388.675 40.4169C387.98 45.7954 388.626 49.8539 390.615 52.6115C392.324 54.9825 393.94 55.5851 399.872 56.0651C408.316 56.7486 408.095 56.774 408.321 55.0933C408.512 53.6783 408.29 53.5432 404.693 52.8919C402.586 52.5103 400.211 52.1316 399.415 52.0502C398.62 51.9688 397.691 51.7551 397.352 51.5753C395.901 50.807 394.595 47.1889 394.595 43.9372C394.595 40.5266 394.616 40.4892 396.468 40.4892C400.097 40.4892 400.481 36.4053 396.904 35.8615C395.714 35.68 395.585 35.2164 395.585 31.1274C395.585 26.0559 397.144 22.1139 399.39 21.5028C400.111 21.3066 403.153 21.3213 406.151 21.5356C411.907 21.9465 412.842 21.6413 412.086 19.5993C411.322 17.537 402.846 16.178 397.564 17.2707ZM246.106 22.2575C244.829 23.7341 243.246 25.6828 242.588 26.5873L241.392 28.2324L237.676 24.6827C235.013 22.1388 233.589 21.1935 232.648 21.3467C230.401 21.7131 230.455 23.4243 233.54 49.5345C233.859 52.2299 234.234 53.2091 234.949 53.2091C236.393 53.2091 237.559 48.1455 238.044 39.7594L238.464 32.5289L240.302 34.0383C242.139 35.546 244.189 35.6031 244.209 34.1468C244.214 33.7489 245.271 32.4051 246.558 31.1614L248.899 28.9001L248.59 34.6969C248.42 37.8854 248.548 42.3175 248.874 44.5466C249.512 48.899 251.684 53.4917 253.105 53.4917C254.098 53.4917 255.122 49.3733 254.384 48.3495C254.122 47.9855 253.954 44.1599 254.012 39.8476C254.093 33.8568 253.795 30.6492 252.748 26.2487C251.996 23.0817 251.231 20.2834 251.048 20.0312C250.228 18.8932 248.24 19.7887 246.106 22.2575ZM424.516 20.1324C422.267 20.9103 419.752 26.0435 418.972 31.4469C418.591 34.0881 417.699 38.3195 416.991 40.8494C415.307 46.8684 415.246 54.9565 416.873 56.6717C418.867 58.7742 421.315 59.7137 425.594 60.019C427.885 60.1829 429.999 60.4436 430.293 60.5996C431.005 60.9761 433.514 58.7894 433.514 57.7922C433.514 56.8034 432.077 56.3184 429.151 56.3184C425.045 56.3184 422.585 55.0164 421.319 52.1745C420.317 49.9262 420.282 49.2597 421.033 46.7463C421.505 45.1707 422.205 43.8575 422.59 43.8281C422.975 43.7987 424.549 43.7489 426.09 43.7173C428.272 43.6726 428.981 43.4114 429.307 42.5335C429.778 41.2598 427.563 39.3586 425.606 39.3586C424.965 39.3586 424.067 38.9725 423.609 38.4999C422.45 37.3031 423.158 32.1739 424.882 29.2766C426.675 26.2656 430.021 25.3312 435.493 26.3131C441.705 27.428 441.735 27.4234 441.97 25.3136C442.248 22.8307 440.76 21.4773 436.584 20.4145C432.986 19.4987 426.768 19.3534 424.516 20.1324ZM372.806 21.8533C370.369 24.0891 369.274 26.957 369.233 31.2139C369.191 35.5178 370.085 36.6411 372.984 35.9282C377.928 34.7133 380.443 30.7905 380.209 24.6601C380.04 20.2161 376.184 18.7542 372.806 21.8533ZM217.524 26.078C216.972 27.2086 215.901 29.921 215.141 32.1055L213.761 36.0769L212.292 34.3696C208.225 29.6452 200.8 25.2458 196.87 25.2311C194.806 25.2232 194.895 27.4647 197.044 29.6542C197.956 30.583 199.662 32.5035 200.837 33.9213C202.011 35.3397 204.69 38.393 206.79 40.7058L210.608 44.9112L208.18 52.3436C206.419 57.7351 205.951 59.9461 206.476 60.3955C207.596 61.3554 210.774 58.0669 212.43 54.2335C214.701 48.9804 214.548 49.0341 218.788 51.9948C225.399 56.6101 229.571 57.5514 228.608 54.2108C228.081 52.3814 225.349 48.4095 223.973 47.471C223.449 47.1137 222.034 45.6337 220.83 44.1814L218.64 41.5419L219.954 38.0476C220.821 35.7428 221.298 32.8212 221.355 29.4654C221.438 24.6205 221.372 24.369 219.984 24.1999C218.845 24.0609 218.307 24.4719 217.524 26.078ZM271.024 25.6381C269.827 27.2979 268.721 42.4181 269.76 42.9252C270.032 43.0581 271.442 42.8698 272.893 42.5069L275.531 41.8466L275.336 37.0696C275.106 31.4536 272.264 23.919 271.024 25.6381Z" fill="#FDD0C7"/>
</g>
<defs>
<filter id="filter0_d_155_152" x="2" y="-10" width="636" height="136" filterUnits="userSpaceOnUse" color-interpolation-filters="sRGB">
<feFlood flood-opacity="0" result="BackgroundImageFix"/>
<feColorMatrix in="SourceAlpha" type="matrix" values="0 0 0 0 0 0 0 0 0 0 0 0 0 0 0 0 0 0 127 0" result="hardAlpha"/>
<feOffset dy="8"/>
<feGaussianBlur stdDeviation="9"/>
<feComposite in2="hardAlpha" operator="out"/>
<feColorMatrix type="matrix" values="0 0 0 0 0.531807 0 0 0 0 0.168831 0 0 0 0 0.0966367 0 0 0 0.4 0"/>
<feBlend mode="normal" in2="BackgroundImageFix" result="effect1_dropShadow_155_152"/>
<feBlend mode="normal" in="SourceGraphic" in2="effect1_dropShadow_155_152" result="shape"/>
</filter>
<clipPath id="clip0_155_152">
<rect width="640" height="120" fill="white"/>
</clipPath>
</defs>
</svg>
