<svg width="160" height="200" viewBox="0 0 160 200" fill="none" xmlns="http://www.w3.org/2000/svg">
<g filter="url(#filter0_d_109_2257)">
<path d="M87.467 160C89.8236 160 91.7339 158.209 91.7339 156V140L116.485 136C119.452 135.52 120.956 132.397 119.34 130.015C116.218 125.415 111.13 118.088 105.068 110L112.381 106.862C114.695 105.869 115.571 103.222 114.215 101.202C110.5 95.6673 103.14 85.0568 95.4675 76L101.385 72.8008C103.279 71.7774 104.049 69.5785 103.06 67.7519C96.3634 55.3911 83.9148 40 80 40C76.0852 40 63.6366 55.3911 56.9401 67.7519C55.9506 69.5785 56.7214 71.7774 58.6145 72.8008L64.5325 76C56.8597 85.0568 49.4997 95.6673 45.7848 101.202C44.4293 103.222 45.3048 105.869 47.6191 106.862L54.9321 110C48.8697 118.088 43.7819 125.415 40.6602 130.015C39.0439 132.397 40.5477 135.52 43.5153 136L68.2661 140V156C68.2661 158.209 70.1764 160 72.533 160H87.467Z" fill="white" fill-opacity="0.4" shape-rendering="crispEdges"/>
<path d="M91.6542 139.506C91.4119 139.546 91.2339 139.755 91.2339 140V156C91.2339 157.903 89.5784 159.5 87.467 159.5H72.533C70.4216 159.5 68.7661 157.903 68.7661 156V140C68.7661 139.755 68.5881 139.546 68.3458 139.506L43.5951 135.506C40.9398 135.077 39.6899 132.336 41.074 130.296C44.1927 125.7 49.2758 118.38 55.3321 110.3C55.4241 110.177 55.4547 110.019 55.4151 109.871C55.3755 109.723 55.2701 109.601 55.1292 109.541L47.8163 106.403C45.7625 105.521 45.0352 103.216 46.1999 101.481C49.9118 95.9506 57.2595 85.3585 64.914 76.3232C65.0114 76.2082 65.0518 76.0555 65.0239 75.9074C64.996 75.7594 64.9029 75.6318 64.7703 75.5602L58.8523 72.3609C57.1719 71.4525 56.5378 69.5444 57.3798 67.9901C60.7109 61.8413 65.4784 54.9298 69.8993 49.5584C72.1101 46.8722 74.2246 44.583 76.0211 42.97C76.92 42.163 77.7283 41.5352 78.4206 41.1121C79.1282 40.6796 79.6527 40.5 80 40.5C80.3473 40.5 80.8718 40.6796 81.5794 41.1121C82.2717 41.5352 83.08 42.163 83.9789 42.97C85.7754 44.583 87.8899 46.8722 90.1007 49.5584C94.5216 54.9298 99.2891 61.8413 102.62 67.9901C103.462 69.5444 102.828 71.4525 101.148 72.3609L95.2297 75.5602C95.0971 75.6318 95.004 75.7594 94.9761 75.9074C94.9482 76.0555 94.9886 76.2082 95.086 76.3232C102.741 85.3585 110.088 95.9506 113.8 101.481C114.965 103.216 114.238 105.521 112.184 106.403L104.871 109.541C104.73 109.601 104.624 109.723 104.585 109.871C104.545 110.019 104.576 110.177 104.668 110.3C110.724 118.38 115.807 125.7 118.926 130.296C120.31 132.336 119.06 135.077 116.405 135.506L91.6542 139.506Z" stroke="white" stroke-opacity="0.1" stroke-linejoin="round" shape-rendering="crispEdges"/>
</g>
<defs>
<filter id="filter0_d_109_2257" x="0" y="0" width="160" height="200" filterUnits="userSpaceOnUse" color-interpolation-filters="sRGB">
<feFlood flood-opacity="0" result="BackgroundImageFix"/>
<feColorMatrix in="SourceAlpha" type="matrix" values="0 0 0 0 0 0 0 0 0 0 0 0 0 0 0 0 0 0 127 0" result="hardAlpha"/>
<feOffset/>
<feGaussianBlur stdDeviation="20"/>
<feComposite in2="hardAlpha" operator="out"/>
<feColorMatrix type="matrix" values="0 0 0 0 1 0 0 0 0 1 0 0 0 0 1 0 0 0 0.6 0"/>
<feBlend mode="normal" in2="BackgroundImageFix" result="effect1_dropShadow_109_2257"/>
<feBlend mode="normal" in="SourceGraphic" in2="effect1_dropShadow_109_2257" result="shape"/>
</filter>
</defs>
</svg>