<svg width="800" height="1200" viewBox="0 0 800 1200" fill="none" xmlns="http://www.w3.org/2000/svg">
<path d="M514.148 980.256C504.46 981.822 497.339 990.186 497.339 1000V1160C497.339 1169.85 488.427 1180 474.67 1180H325.329C311.573 1180 302.661 1169.85 302.661 1160V1000C302.661 990.186 295.54 981.822 285.852 980.256L38.3438 940.252C21.1616 937.474 16.2804 921.51 23.1517 911.384C54.2505 865.554 104.942 792.554 165.324 711.995C169.003 707.087 170.226 700.762 168.642 694.837C167.059 688.911 162.844 684.039 157.207 681.62L84.0774 650.243C71.3534 644.783 68.5275 631.998 74.4537 623.168C111.481 568.002 184.588 462.633 260.585 372.928C264.481 368.33 266.095 362.22 264.98 356.298C263.864 350.376 260.138 345.272 254.836 342.406L195.656 310.414C185.231 304.778 182.992 294.42 186.987 287.046C219.784 226.507 266.897 158.184 310.574 105.116C332.429 78.5627 353.041 56.2966 370.232 40.8618C378.855 33.1194 386.18 27.4939 392.028 23.9202C396.884 20.9522 399.39 20.2312 400 20.0561C400.61 20.2312 403.116 20.9522 407.972 23.9202C413.82 27.4939 421.145 33.1194 429.768 40.8618C446.959 56.2966 467.571 78.5627 489.425 105.116C533.103 158.184 580.216 226.507 613.013 287.046C617.008 294.42 614.769 304.778 604.344 310.414L545.163 342.406C539.862 345.272 536.136 350.376 535.02 356.298C533.905 362.22 535.519 368.33 539.415 372.928C615.412 462.633 688.519 568.002 725.546 623.168C731.472 631.998 728.646 644.783 715.922 650.243L642.793 681.62C637.156 684.039 632.941 688.911 631.357 694.837C629.774 700.762 630.997 707.087 634.676 711.995C695.058 792.554 745.749 865.554 776.848 911.384C783.719 921.51 778.838 937.474 761.656 940.252L514.148 980.256Z" fill="white"/>
</svg>
