<svg width="64" height="64" viewBox="0 0 64 64" fill="none" xmlns="http://www.w3.org/2000/svg">
<path d="M40 32L36 28M40 32L36 36M40 32L44 28M40 32L44 36M18 26.5455H24L30 20C30 20 32 24 32 32C32 40 30 44 30 44L24 37.4545H18V26.5455Z" stroke="white" stroke-opacity="0.2" stroke-width="4" stroke-linecap="square" stroke-linejoin="round"/>
<path d="M40 32L36 28M40 32L36 36M40 32L44 28M40 32L44 36M18 26.5455H24L30 20C30 20 32 24 32 32C32 40 30 44 30 44L24 37.4545H18V26.5455Z" stroke="white" stroke-width="2" stroke-linejoin="bevel"/>
</svg>
