<svg width="640" height="140" viewBox="0 0 640 140" fill="none" xmlns="http://www.w3.org/2000/svg">
<g clip-path="url(#clip0_164_193)">
<g filter="url(#filter0_d_164_193)">
<path d="M20 0H620C620 0 602.353 0 602.353 25V48C602.353 76.7188 579.072 100 550.353 100H89.6471C60.9283 100 37.6471 76.7188 37.6471 48V25C37.6471 0 20 0 20 0Z" fill="url(#paint0_linear_164_193)"/>
</g>
<path d="M350 1H540C561.539 1 579 18.4609 579 40C579 61.5391 561.539 79 540 79H350C328.461 79 311 61.5391 311 40C311 18.4609 328.461 1 350 1Z" fill="url(#paint1_linear_164_193)" stroke="#FFEAD2" stroke-width="2"/>
<path d="M100 1H250C271.539 1 289 18.4609 289 40C289 61.5391 271.539 79 250 79H100C78.4609 79 61 61.5391 61 40C61 18.4609 78.4609 1 100 1Z" fill="url(#paint2_linear_164_193)" stroke="#FFEAD2" stroke-width="2"/>
</g>
<defs>
<filter id="filter0_d_164_193" x="-20" y="-20" width="680" height="180" filterUnits="userSpaceOnUse" color-interpolation-filters="sRGB">
<feFlood flood-opacity="0" result="BackgroundImageFix"/>
<feColorMatrix in="SourceAlpha" type="matrix" values="0 0 0 0 0 0 0 0 0 0 0 0 0 0 0 0 0 0 127 0" result="hardAlpha"/>
<feOffset dy="20"/>
<feGaussianBlur stdDeviation="20"/>
<feComposite in2="hardAlpha" operator="out"/>
<feColorMatrix type="matrix" values="0 0 0 0 0 0 0 0 0 0 0 0 0 0 0 0 0 0 0.2 0"/>
<feBlend mode="normal" in2="BackgroundImageFix" result="effect1_dropShadow_164_193"/>
<feBlend mode="normal" in="SourceGraphic" in2="effect1_dropShadow_164_193" result="shape"/>
</filter>
<linearGradient id="paint0_linear_164_193" x1="320" y1="0" x2="320" y2="100" gradientUnits="userSpaceOnUse">
<stop stop-color="#D82401"/>
<stop offset="1" stop-color="#9D2B15"/>
</linearGradient>
<linearGradient id="paint1_linear_164_193" x1="445" y1="0" x2="445" y2="80" gradientUnits="userSpaceOnUse">
<stop stop-color="#FFE6C9"/>
<stop offset="0.5" stop-color="#F8E1C5"/>
<stop offset="1" stop-color="#CCA271"/>
</linearGradient>
<linearGradient id="paint2_linear_164_193" x1="175" y1="0" x2="175" y2="80" gradientUnits="userSpaceOnUse">
<stop stop-color="#FFE6C9"/>
<stop offset="0.5" stop-color="#F8E1C5"/>
<stop offset="1" stop-color="#CCA271"/>
</linearGradient>
<clipPath id="clip0_164_193">
<rect width="640" height="140" fill="white"/>
</clipPath>
</defs>
</svg>
