<svg width="64" height="64" viewBox="0 0 64 64" fill="none" xmlns="http://www.w3.org/2000/svg">
<path d="M36 26C36 26 38 28 38 32C38 36 36 38 36 38M40 22C40 22 44 26 44 32C44 38 40 42 40 42M18 26.5455H24L30 20C30 20 32 24 32 32C32 40 30 44 30 44L24 37.4545H18V26.5455Z" stroke="white" stroke-opacity="0.2" stroke-width="4" stroke-linecap="square" stroke-linejoin="round"/>
<path d="M36 26C36 26 38 28 38 32C38 36 36 38 36 38M40 22C40 22 44 26 44 32C44 38 40 42 40 42M18 26.5455H24L30 20C30 20 32 24 32 32C32 40 30 44 30 44L24 37.4545H18V26.5455Z" stroke="white" stroke-width="2" stroke-linejoin="bevel"/>
</svg>